# xmcd
#
# Track frame offsets:
#	150
#	35162
#	56645
#	73475
#	92300
#	119222
#	141115
#	155130
#	168820
#	188457
#	209412
#	226707
#	247502
#	263942
#	288252
#
# Disc length: 4342 seconds
#
# Revision: 0
# Processed by: cddbd v1.5.2PL0 Copyright (c) Steve Scherf et al.
# Submitted via: EasyCDDAExtractor 4.5.0.2
#
DISCID=d510f40f
DTITLE=T.D. Bell and Erbie bowser - It's about time
DYEAR=1992
DGENRE=Blues
TTITLE0=Soon As The Weather Breaks
TTITLE1=24 Hours A Days
TTITLE2=Gee Baby Ain't I Been Good To You
TTITLE3=Cut You A Loose
TTITLE4=Cold Cold Feeling
TTITLE5=Home At Last
TTITLE6=Pledging My Love
TTITLE7=T-bone Shuffle
TTITLE8=Erbie's Bounce
TTITLE9=Bobby Sox Blues
TTITLE10=I've Got Bad News Baby
TTITLE11=Black Night
TTITLE12=Don't Lie To Me
TTITLE13=Feeling For You
TTITLE14=After Hours
EXTD=
EXTT0=
EXTT1=
EXTT2=
EXTT3=
EXTT4=
EXTT5=
EXTT6=
EXTT7=
EXTT8=
EXTT9=
EXTT10=
EXTT11=
EXTT12=
EXTT13=
EXTT14=
PLAYORDER=
